<svg xmlns="http://www.w3.org/2000/svg" xmlns:xlink="http://www.w3.org/1999/xlink" width="2000" zoomAndPan="magnify" viewBox="0 0 1500 1499.999933" height="2000" preserveAspectRatio="xMidYMid meet" version="1.0"><defs><g/><clipPath id="7775e30f26"><path d="M 998.421875 450.015625 L 1321.671875 450.015625 L 1321.671875 773.265625 L 998.421875 773.265625 Z M 998.421875 450.015625 " clip-rule="nonzero"/></clipPath><clipPath id="7f4decfe77"><rect x="0" width="1149" y="0" height="478"/></clipPath></defs><g clip-path="url(#7775e30f26)"><path fill="#80a300" d="M 1321.863281 611.738281 C 1321.863281 614.386719 1321.800781 617.03125 1321.671875 619.675781 C 1321.539062 622.320312 1321.347656 624.957031 1321.085938 627.589844 C 1320.828125 630.226562 1320.503906 632.851562 1320.113281 635.46875 C 1319.726562 638.085938 1319.273438 640.695312 1318.757812 643.289062 C 1318.242188 645.886719 1317.660156 648.46875 1317.019531 651.035156 C 1316.375 653.601562 1315.667969 656.152344 1314.902344 658.683594 C 1314.132812 661.21875 1313.304688 663.730469 1312.410156 666.222656 C 1311.519531 668.714844 1310.566406 671.183594 1309.554688 673.628906 C 1308.542969 676.074219 1307.46875 678.492188 1306.339844 680.882812 C 1305.207031 683.277344 1304.015625 685.640625 1302.769531 687.976562 C 1301.523438 690.308594 1300.21875 692.609375 1298.855469 694.882812 C 1297.496094 697.152344 1296.082031 699.386719 1294.609375 701.585938 C 1293.140625 703.789062 1291.617188 705.953125 1290.039062 708.078125 C 1288.460938 710.203125 1286.835938 712.289062 1285.15625 714.335938 C 1283.476562 716.382812 1281.75 718.382812 1279.972656 720.34375 C 1278.195312 722.304688 1276.371094 724.222656 1274.496094 726.09375 C 1272.625 727.964844 1270.710938 729.789062 1268.75 731.566406 C 1266.789062 733.34375 1264.785156 735.074219 1262.738281 736.753906 C 1260.691406 738.429688 1258.605469 740.058594 1256.480469 741.636719 C 1254.355469 743.210938 1252.191406 744.734375 1249.992188 746.207031 C 1247.789062 747.675781 1245.554688 749.09375 1243.285156 750.453125 C 1241.015625 751.8125 1238.710938 753.117188 1236.378906 754.367188 C 1234.042969 755.613281 1231.679688 756.804688 1229.289062 757.933594 C 1226.894531 759.066406 1224.476562 760.136719 1222.03125 761.152344 C 1219.585938 762.164062 1217.117188 763.117188 1214.625 764.007812 C 1212.132812 764.898438 1209.621094 765.730469 1207.089844 766.5 C 1204.554688 767.265625 1202.003906 767.972656 1199.4375 768.613281 C 1196.871094 769.257812 1194.289062 769.839844 1191.695312 770.355469 C 1189.097656 770.871094 1186.492188 771.324219 1183.871094 771.710938 C 1181.253906 772.101562 1178.628906 772.421875 1175.996094 772.683594 C 1173.359375 772.941406 1170.722656 773.136719 1168.078125 773.265625 C 1165.433594 773.398438 1162.789062 773.460938 1160.144531 773.460938 C 1157.496094 773.460938 1154.851562 773.398438 1152.207031 773.265625 C 1149.5625 773.136719 1146.925781 772.941406 1144.292969 772.683594 C 1141.65625 772.421875 1139.03125 772.101562 1136.414062 771.710938 C 1133.796875 771.324219 1131.1875 770.871094 1128.59375 770.355469 C 1125.996094 769.839844 1123.414062 769.257812 1120.847656 768.613281 C 1118.28125 767.972656 1115.730469 767.265625 1113.199219 766.5 C 1110.664062 765.730469 1108.152344 764.898438 1105.660156 764.007812 C 1103.167969 763.117188 1100.699219 762.164062 1098.253906 761.152344 C 1095.808594 760.136719 1093.390625 759.066406 1090.996094 757.933594 C 1088.605469 756.804688 1086.242188 755.613281 1083.90625 754.367188 C 1081.574219 753.117188 1079.269531 751.8125 1077 750.453125 C 1074.730469 749.09375 1072.496094 747.675781 1070.296875 746.207031 C 1068.09375 744.734375 1065.929688 743.210938 1063.804688 741.636719 C 1061.679688 740.058594 1059.59375 738.429688 1057.546875 736.753906 C 1055.5 735.074219 1053.5 733.34375 1051.535156 731.566406 C 1049.574219 729.789062 1047.660156 727.964844 1045.789062 726.09375 C 1043.917969 724.222656 1042.09375 722.304688 1040.316406 720.34375 C 1038.539062 718.382812 1036.808594 716.382812 1035.128906 714.335938 C 1033.449219 712.289062 1031.824219 710.203125 1030.246094 708.078125 C 1028.667969 705.953125 1027.144531 703.789062 1025.675781 701.585938 C 1024.207031 699.386719 1022.789062 697.152344 1021.429688 694.882812 C 1020.070312 692.609375 1018.765625 690.308594 1017.515625 687.976562 C 1016.269531 685.640625 1015.078125 683.277344 1013.949219 680.882812 C 1012.816406 678.492188 1011.742188 676.074219 1010.730469 673.628906 C 1009.71875 671.183594 1008.765625 668.714844 1007.875 666.222656 C 1006.984375 663.730469 1006.152344 661.21875 1005.382812 658.683594 C 1004.617188 656.152344 1003.910156 653.601562 1003.265625 651.035156 C 1002.625 648.46875 1002.042969 645.886719 1001.527344 643.289062 C 1001.011719 640.695312 1000.558594 638.085938 1000.171875 635.46875 C 999.78125 632.851562 999.457031 630.226562 999.199219 627.589844 C 998.941406 624.957031 998.746094 622.320312 998.617188 619.675781 C 998.484375 617.03125 998.421875 614.386719 998.421875 611.738281 C 998.421875 609.09375 998.484375 606.449219 998.617188 603.804688 C 998.746094 601.160156 998.941406 598.523438 999.199219 595.886719 C 999.457031 593.253906 999.78125 590.628906 1000.171875 588.011719 C 1000.558594 585.390625 1001.011719 582.785156 1001.527344 580.1875 C 1002.042969 577.59375 1002.625 575.011719 1003.265625 572.445312 C 1003.910156 569.875 1004.617188 567.328125 1005.382812 564.792969 C 1006.152344 562.261719 1006.984375 559.75 1007.875 557.257812 C 1008.765625 554.765625 1009.71875 552.296875 1010.730469 549.851562 C 1011.742188 547.40625 1012.816406 544.988281 1013.949219 542.59375 C 1015.078125 540.203125 1016.269531 537.839844 1017.515625 535.503906 C 1018.765625 533.171875 1020.070312 530.867188 1021.429688 528.597656 C 1022.789062 526.328125 1024.207031 524.09375 1025.675781 521.890625 C 1027.144531 519.691406 1028.667969 517.527344 1030.246094 515.402344 C 1031.824219 513.277344 1033.449219 511.191406 1035.128906 509.144531 C 1036.808594 507.097656 1038.539062 505.09375 1040.316406 503.132812 C 1042.09375 501.171875 1043.917969 499.257812 1045.789062 497.382812 C 1047.660156 495.511719 1049.574219 493.6875 1051.535156 491.910156 C 1053.5 490.132812 1055.5 488.40625 1057.546875 486.726562 C 1059.59375 485.046875 1061.679688 483.417969 1063.804688 481.84375 C 1065.929688 480.265625 1068.09375 478.742188 1070.296875 477.273438 C 1072.496094 475.800781 1074.730469 474.386719 1077 473.027344 C 1079.269531 471.664062 1081.574219 470.359375 1083.90625 469.113281 C 1086.242188 467.867188 1088.605469 466.675781 1090.996094 465.542969 C 1093.390625 464.414062 1095.808594 463.339844 1098.253906 462.328125 C 1100.699219 461.316406 1103.167969 460.363281 1105.660156 459.472656 C 1108.152344 458.578125 1110.664062 457.75 1113.199219 456.980469 C 1115.730469 456.210938 1118.28125 455.507812 1120.847656 454.863281 C 1123.414062 454.222656 1125.996094 453.640625 1128.59375 453.125 C 1131.1875 452.609375 1133.796875 452.15625 1136.414062 451.769531 C 1139.03125 451.378906 1141.65625 451.054688 1144.292969 450.796875 C 1146.925781 450.535156 1149.5625 450.34375 1152.207031 450.210938 C 1154.851562 450.082031 1157.496094 450.015625 1160.144531 450.015625 C 1162.789062 450.015625 1165.433594 450.082031 1168.078125 450.210938 C 1170.722656 450.34375 1173.359375 450.535156 1175.996094 450.796875 C 1178.628906 451.054688 1181.253906 451.378906 1183.871094 451.769531 C 1186.492188 452.15625 1189.097656 452.609375 1191.695312 453.125 C 1194.289062 453.640625 1196.871094 454.222656 1199.4375 454.863281 C 1202.003906 455.507812 1204.554688 456.210938 1207.089844 456.980469 C 1209.621094 457.75 1212.132812 458.578125 1214.625 459.472656 C 1217.117188 460.363281 1219.585938 461.316406 1222.03125 462.328125 C 1224.476562 463.339844 1226.894531 464.414062 1229.289062 465.542969 C 1231.679688 466.675781 1234.042969 467.867188 1236.378906 469.113281 C 1238.710938 470.359375 1241.015625 471.664062 1243.285156 473.027344 C 1245.554688 474.386719 1247.789062 475.800781 1249.992188 477.273438 C 1252.191406 478.742188 1254.355469 480.265625 1256.480469 481.84375 C 1258.605469 483.417969 1260.691406 485.046875 1262.738281 486.726562 C 1264.785156 488.40625 1266.789062 490.132812 1268.75 491.910156 C 1270.710938 493.6875 1272.625 495.511719 1274.496094 497.382812 C 1276.371094 499.257812 1278.195312 501.171875 1279.972656 503.132812 C 1281.75 505.09375 1283.476562 507.097656 1285.15625 509.144531 C 1286.835938 511.191406 1288.460938 513.277344 1290.039062 515.402344 C 1291.617188 517.527344 1293.140625 519.691406 1294.609375 521.890625 C 1296.082031 524.09375 1297.496094 526.328125 1298.855469 528.597656 C 1300.21875 530.867188 1301.523438 533.171875 1302.769531 535.503906 C 1304.015625 537.839844 1305.207031 540.203125 1306.339844 542.59375 C 1307.46875 544.988281 1308.542969 547.40625 1309.554688 549.851562 C 1310.566406 552.296875 1311.519531 554.765625 1312.410156 557.257812 C 1313.304688 559.75 1314.132812 562.261719 1314.902344 564.792969 C 1315.667969 567.328125 1316.375 569.875 1317.019531 572.445312 C 1317.660156 575.011719 1318.242188 577.59375 1318.757812 580.1875 C 1319.273438 582.785156 1319.726562 585.390625 1320.113281 588.011719 C 1320.503906 590.628906 1320.828125 593.253906 1321.085938 595.886719 C 1321.347656 598.523438 1321.539062 601.160156 1321.671875 603.804688 C 1321.800781 606.449219 1321.863281 609.09375 1321.863281 611.738281 Z M 1321.863281 611.738281 " fill-opacity="1" fill-rule="nonzero"/></g><path fill="#80a300" d="M 1311.96875 611.738281 C 1311.96875 614.222656 1311.910156 616.707031 1311.789062 619.1875 C 1311.664062 621.671875 1311.484375 624.148438 1311.238281 626.621094 C 1310.996094 629.09375 1310.691406 631.558594 1310.328125 634.015625 C 1309.960938 636.476562 1309.539062 638.921875 1309.054688 641.359375 C 1308.570312 643.796875 1308.023438 646.21875 1307.421875 648.628906 C 1306.816406 651.039062 1306.152344 653.433594 1305.433594 655.8125 C 1304.710938 658.191406 1303.933594 660.550781 1303.09375 662.890625 C 1302.257812 665.226562 1301.363281 667.546875 1300.414062 669.839844 C 1299.460938 672.136719 1298.457031 674.40625 1297.394531 676.652344 C 1296.332031 678.898438 1295.214844 681.121094 1294.042969 683.3125 C 1292.871094 685.5 1291.648438 687.664062 1290.371094 689.792969 C 1289.09375 691.925781 1287.761719 694.023438 1286.382812 696.089844 C 1285.003906 698.15625 1283.570312 700.1875 1282.09375 702.183594 C 1280.613281 704.179688 1279.082031 706.136719 1277.507812 708.058594 C 1275.929688 709.980469 1274.308594 711.859375 1272.640625 713.699219 C 1270.972656 715.542969 1269.257812 717.339844 1267.5 719.097656 C 1265.746094 720.855469 1263.945312 722.566406 1262.105469 724.234375 C 1260.261719 725.90625 1258.382812 727.527344 1256.460938 729.105469 C 1254.539062 730.679688 1252.582031 732.207031 1250.585938 733.6875 C 1248.589844 735.167969 1246.558594 736.597656 1244.492188 737.980469 C 1242.429688 739.359375 1240.328125 740.6875 1238.199219 741.964844 C 1236.066406 743.242188 1233.90625 744.46875 1231.714844 745.640625 C 1229.523438 746.8125 1227.304688 747.925781 1225.058594 748.988281 C 1222.8125 750.050781 1220.539062 751.058594 1218.246094 752.011719 C 1215.949219 752.960938 1213.632812 753.855469 1211.292969 754.691406 C 1208.953125 755.527344 1206.59375 756.308594 1204.214844 757.03125 C 1201.839844 757.75 1199.445312 758.414062 1197.035156 759.015625 C 1194.625 759.621094 1192.199219 760.164062 1189.761719 760.648438 C 1187.324219 761.132812 1184.878906 761.558594 1182.421875 761.921875 C 1179.960938 762.289062 1177.496094 762.59375 1175.023438 762.835938 C 1172.550781 763.078125 1170.074219 763.261719 1167.59375 763.382812 C 1165.109375 763.507812 1162.628906 763.566406 1160.144531 763.566406 C 1157.660156 763.566406 1155.175781 763.507812 1152.691406 763.382812 C 1150.210938 763.261719 1147.734375 763.078125 1145.261719 762.835938 C 1142.789062 762.59375 1140.324219 762.289062 1137.867188 761.921875 C 1135.40625 761.558594 1132.960938 761.132812 1130.523438 760.648438 C 1128.085938 760.164062 1125.664062 759.621094 1123.25 759.015625 C 1120.839844 758.414062 1118.449219 757.75 1116.070312 757.03125 C 1113.691406 756.308594 1111.332031 755.527344 1108.992188 754.691406 C 1106.65625 753.855469 1104.335938 752.960938 1102.042969 752.011719 C 1099.746094 751.058594 1097.472656 750.050781 1095.226562 748.988281 C 1092.980469 747.925781 1090.761719 746.8125 1088.570312 745.640625 C 1086.378906 744.46875 1084.21875 743.242188 1082.089844 741.964844 C 1079.957031 740.6875 1077.859375 739.359375 1075.792969 737.980469 C 1073.726562 736.597656 1071.695312 735.167969 1069.699219 733.6875 C 1067.703125 732.207031 1065.746094 730.679688 1063.824219 729.105469 C 1061.902344 727.527344 1060.023438 725.90625 1058.183594 724.234375 C 1056.339844 722.566406 1054.542969 720.855469 1052.785156 719.097656 C 1051.027344 717.339844 1049.316406 715.542969 1047.644531 713.699219 C 1045.976562 711.859375 1044.355469 709.980469 1042.777344 708.058594 C 1041.203125 706.136719 1039.675781 704.179688 1038.195312 702.183594 C 1036.714844 700.1875 1035.285156 698.15625 1033.902344 696.089844 C 1032.523438 694.023438 1031.195312 691.925781 1029.917969 689.792969 C 1028.640625 687.664062 1027.414062 685.5 1026.242188 683.3125 C 1025.070312 681.121094 1023.953125 678.898438 1022.890625 676.652344 C 1021.832031 674.40625 1020.824219 672.136719 1019.871094 669.839844 C 1018.921875 667.546875 1018.027344 665.226562 1017.191406 662.890625 C 1016.355469 660.550781 1015.574219 658.191406 1014.851562 655.8125 C 1014.132812 653.433594 1013.46875 651.039062 1012.867188 648.628906 C 1012.261719 646.21875 1011.71875 643.796875 1011.234375 641.359375 C 1010.746094 638.921875 1010.324219 636.476562 1009.957031 634.015625 C 1009.59375 631.558594 1009.289062 629.09375 1009.046875 626.621094 C 1008.804688 624.148438 1008.621094 621.671875 1008.5 619.1875 C 1008.375 616.707031 1008.316406 614.222656 1008.316406 611.738281 C 1008.316406 609.253906 1008.375 606.773438 1008.5 604.289062 C 1008.621094 601.808594 1008.804688 599.332031 1009.046875 596.859375 C 1009.289062 594.386719 1009.59375 591.917969 1009.957031 589.460938 C 1010.324219 587.003906 1010.746094 584.554688 1011.234375 582.121094 C 1011.71875 579.683594 1012.261719 577.257812 1012.867188 574.847656 C 1013.46875 572.4375 1014.132812 570.042969 1014.851562 567.667969 C 1015.574219 565.289062 1016.355469 562.929688 1017.191406 560.589844 C 1018.027344 558.25 1018.921875 555.933594 1019.871094 553.636719 C 1020.824219 551.34375 1021.832031 549.070312 1022.890625 546.824219 C 1023.953125 544.578125 1025.070312 542.359375 1026.242188 540.167969 C 1027.414062 537.976562 1028.640625 535.816406 1029.917969 533.683594 C 1031.195312 531.554688 1032.523438 529.453125 1033.902344 527.390625 C 1035.285156 525.324219 1036.714844 523.292969 1038.195312 521.296875 C 1039.675781 519.300781 1041.203125 517.34375 1042.777344 515.421875 C 1044.355469 513.5 1045.976562 511.621094 1047.644531 509.777344 C 1049.316406 507.9375 1051.027344 506.136719 1052.785156 504.382812 C 1054.542969 502.625 1056.339844 500.910156 1058.183594 499.242188 C 1060.023438 497.574219 1061.902344 495.953125 1063.824219 494.375 C 1065.746094 492.800781 1067.703125 491.269531 1069.699219 489.789062 C 1071.695312 488.308594 1073.726562 486.878906 1075.792969 485.5 C 1077.859375 484.117188 1079.957031 482.789062 1082.089844 481.511719 C 1084.21875 480.234375 1086.378906 479.011719 1088.570312 477.839844 C 1090.761719 476.667969 1092.980469 475.550781 1095.226562 474.488281 C 1097.472656 473.425781 1099.746094 472.421875 1102.042969 471.46875 C 1104.335938 470.519531 1106.65625 469.625 1108.992188 468.789062 C 1111.332031 467.949219 1113.691406 467.171875 1116.070312 466.449219 C 1118.449219 465.726562 1120.839844 465.066406 1123.25 464.460938 C 1125.664062 463.859375 1128.085938 463.3125 1130.523438 462.828125 C 1132.960938 462.34375 1135.40625 461.921875 1137.867188 461.554688 C 1140.324219 461.191406 1142.789062 460.886719 1145.261719 460.644531 C 1147.734375 460.398438 1150.210938 460.21875 1152.691406 460.09375 C 1155.175781 459.972656 1157.660156 459.910156 1160.144531 459.910156 C 1162.628906 459.910156 1165.109375 459.972656 1167.59375 460.09375 C 1170.074219 460.21875 1172.550781 460.398438 1175.023438 460.644531 C 1177.496094 460.886719 1179.960938 461.191406 1182.421875 461.554688 C 1184.878906 461.921875 1187.324219 462.34375 1189.761719 462.828125 C 1192.199219 463.3125 1194.625 463.859375 1197.035156 464.460938 C 1199.445312 465.066406 1201.839844 465.726562 1204.214844 466.449219 C 1206.59375 467.171875 1208.953125 467.949219 1211.292969 468.789062 C 1213.632812 469.625 1215.949219 470.519531 1218.246094 471.46875 C 1220.539062 472.421875 1222.8125 473.425781 1225.058594 474.488281 C 1227.304688 475.550781 1229.523438 476.667969 1231.714844 477.839844 C 1233.90625 479.011719 1236.066406 480.234375 1238.199219 481.511719 C 1240.328125 482.789062 1242.429688 484.117188 1244.492188 485.5 C 1246.558594 486.878906 1248.589844 488.308594 1250.585938 489.789062 C 1252.582031 491.269531 1254.539062 492.800781 1256.460938 494.375 C 1258.382812 495.953125 1260.261719 497.574219 1262.105469 499.242188 C 1263.945312 500.910156 1265.746094 502.625 1267.5 504.382812 C 1269.257812 506.136719 1270.972656 507.9375 1272.640625 509.777344 C 1274.308594 511.621094 1275.929688 513.5 1277.507812 515.421875 C 1279.082031 517.34375 1280.613281 519.300781 1282.09375 521.296875 C 1283.570312 523.292969 1285.003906 525.324219 1286.382812 527.390625 C 1287.761719 529.453125 1289.09375 531.554688 1290.371094 533.683594 C 1291.648438 535.816406 1292.871094 537.976562 1294.042969 540.167969 C 1295.214844 542.359375 1296.332031 544.578125 1297.394531 546.824219 C 1298.457031 549.070312 1299.460938 551.34375 1300.414062 553.636719 C 1301.363281 555.933594 1302.257812 558.25 1303.09375 560.589844 C 1303.933594 562.929688 1304.710938 565.289062 1305.433594 567.667969 C 1306.152344 570.042969 1306.816406 572.4375 1307.421875 574.847656 C 1308.023438 577.257812 1308.570312 579.683594 1309.054688 582.121094 C 1309.539062 584.554688 1309.960938 587.003906 1310.328125 589.460938 C 1310.691406 591.917969 1310.996094 594.386719 1311.238281 596.859375 C 1311.484375 599.332031 1311.664062 601.808594 1311.789062 604.289062 C 1311.910156 606.773438 1311.96875 609.253906 1311.96875 611.738281 Z M 1311.96875 611.738281 " fill-opacity="1" fill-rule="nonzero"/><path fill="#80a300" d="M 1301.585938 611.738281 C 1301.585938 614.054688 1301.527344 616.367188 1301.414062 618.679688 C 1301.300781 620.992188 1301.128906 623.300781 1300.902344 625.601562 C 1300.675781 627.90625 1300.394531 630.203125 1300.054688 632.492188 C 1299.714844 634.78125 1299.316406 637.0625 1298.867188 639.332031 C 1298.414062 641.605469 1297.90625 643.863281 1297.34375 646.105469 C 1296.78125 648.351562 1296.164062 650.582031 1295.492188 652.796875 C 1294.820312 655.011719 1294.097656 657.210938 1293.316406 659.390625 C 1292.535156 661.570312 1291.703125 663.726562 1290.816406 665.867188 C 1289.933594 668.003906 1288.996094 670.121094 1288.003906 672.214844 C 1287.015625 674.304688 1285.972656 676.375 1284.882812 678.414062 C 1283.792969 680.457031 1282.652344 682.46875 1281.460938 684.453125 C 1280.269531 686.441406 1279.035156 688.394531 1277.746094 690.320312 C 1276.460938 692.246094 1275.128906 694.136719 1273.75 695.996094 C 1272.371094 697.855469 1270.945312 699.679688 1269.480469 701.46875 C 1268.011719 703.257812 1266.5 705.011719 1264.945312 706.726562 C 1263.390625 708.441406 1261.792969 710.117188 1260.15625 711.753906 C 1258.519531 713.390625 1256.84375 714.984375 1255.128906 716.539062 C 1253.414062 718.09375 1251.660156 719.605469 1249.871094 721.074219 C 1248.082031 722.542969 1246.257812 723.96875 1244.398438 725.347656 C 1242.539062 726.726562 1240.648438 728.058594 1238.722656 729.34375 C 1236.800781 730.628906 1234.84375 731.867188 1232.859375 733.058594 C 1230.871094 734.246094 1228.859375 735.386719 1226.816406 736.480469 C 1224.777344 737.570312 1222.710938 738.613281 1220.617188 739.601562 C 1218.523438 740.589844 1216.410156 741.527344 1214.269531 742.414062 C 1212.132812 743.300781 1209.972656 744.132812 1207.792969 744.914062 C 1205.613281 745.691406 1203.417969 746.417969 1201.203125 747.089844 C 1198.984375 747.761719 1196.757812 748.378906 1194.511719 748.941406 C 1192.265625 749.503906 1190.007812 750.011719 1187.738281 750.464844 C 1185.464844 750.914062 1183.1875 751.308594 1180.898438 751.648438 C 1178.605469 751.988281 1176.308594 752.273438 1174.007812 752.5 C 1171.703125 752.726562 1169.394531 752.898438 1167.082031 753.011719 C 1164.769531 753.125 1162.457031 753.179688 1160.144531 753.179688 C 1157.828125 753.179688 1155.515625 753.125 1153.203125 753.011719 C 1150.890625 752.898438 1148.582031 752.726562 1146.28125 752.5 C 1143.976562 752.273438 1141.679688 751.988281 1139.390625 751.648438 C 1137.097656 751.308594 1134.820312 750.914062 1132.550781 750.464844 C 1130.277344 750.011719 1128.019531 749.503906 1125.777344 748.941406 C 1123.53125 748.378906 1121.300781 747.761719 1119.085938 747.089844 C 1116.871094 746.417969 1114.671875 745.691406 1112.492188 744.914062 C 1110.3125 744.132812 1108.15625 743.300781 1106.015625 742.414062 C 1103.878906 741.527344 1101.761719 740.589844 1099.667969 739.601562 C 1097.578125 738.613281 1095.507812 737.570312 1093.46875 736.480469 C 1091.425781 735.386719 1089.414062 734.246094 1087.425781 733.058594 C 1085.441406 731.867188 1083.488281 730.628906 1081.5625 729.34375 C 1079.636719 728.058594 1077.746094 726.726562 1075.886719 725.347656 C 1074.027344 723.96875 1072.203125 722.542969 1070.414062 721.074219 C 1068.625 719.605469 1066.871094 718.09375 1065.15625 716.539062 C 1063.441406 714.984375 1061.765625 713.390625 1060.128906 711.753906 C 1058.492188 710.117188 1056.894531 708.441406 1055.34375 706.726562 C 1053.789062 705.011719 1052.277344 703.257812 1050.808594 701.46875 C 1049.339844 699.679688 1047.914062 697.855469 1046.535156 695.996094 C 1045.15625 694.136719 1043.824219 692.246094 1042.539062 690.320312 C 1041.253906 688.394531 1040.015625 686.441406 1038.824219 684.453125 C 1037.632812 682.46875 1036.492188 680.457031 1035.402344 678.414062 C 1034.3125 676.375 1033.269531 674.304688 1032.28125 672.214844 C 1031.292969 670.121094 1030.355469 668.003906 1029.46875 665.867188 C 1028.582031 663.726562 1027.75 661.570312 1026.96875 659.390625 C 1026.191406 657.210938 1025.464844 655.011719 1024.792969 652.796875 C 1024.121094 650.582031 1023.503906 648.351562 1022.941406 646.105469 C 1022.378906 643.863281 1021.871094 641.605469 1021.417969 639.332031 C 1020.96875 637.0625 1020.570312 634.78125 1020.234375 632.492188 C 1019.894531 630.203125 1019.609375 627.90625 1019.382812 625.601562 C 1019.15625 623.300781 1018.984375 620.992188 1018.871094 618.679688 C 1018.757812 616.367188 1018.703125 614.054688 1018.703125 611.738281 C 1018.703125 609.425781 1018.757812 607.113281 1018.871094 604.800781 C 1018.984375 602.488281 1019.15625 600.179688 1019.382812 597.875 C 1019.609375 595.570312 1019.894531 593.277344 1020.234375 590.984375 C 1020.570312 588.695312 1020.96875 586.414062 1021.417969 584.144531 C 1021.871094 581.875 1022.378906 579.617188 1022.941406 577.371094 C 1023.503906 575.125 1024.121094 572.894531 1024.792969 570.679688 C 1025.464844 568.464844 1026.191406 566.269531 1026.96875 564.089844 C 1027.75 561.910156 1028.582031 559.75 1029.46875 557.613281 C 1030.355469 555.472656 1031.292969 553.359375 1032.28125 551.265625 C 1033.269531 549.171875 1034.3125 547.105469 1035.402344 545.066406 C 1036.492188 543.023438 1037.632812 541.007812 1038.824219 539.023438 C 1040.015625 537.039062 1041.253906 535.082031 1042.539062 533.160156 C 1043.824219 531.234375 1045.15625 529.34375 1046.535156 527.484375 C 1047.914062 525.625 1049.339844 523.800781 1050.808594 522.011719 C 1052.277344 520.222656 1053.789062 518.46875 1055.34375 516.753906 C 1056.894531 515.039062 1058.492188 513.363281 1060.128906 511.726562 C 1061.765625 510.089844 1063.441406 508.492188 1065.15625 506.9375 C 1066.871094 505.382812 1068.625 503.871094 1070.414062 502.402344 C 1072.203125 500.933594 1074.027344 499.511719 1075.886719 498.132812 C 1077.746094 496.753906 1079.636719 495.421875 1081.5625 494.136719 C 1083.488281 492.847656 1085.441406 491.609375 1087.425781 490.421875 C 1089.414062 489.230469 1091.425781 488.089844 1093.46875 487 C 1095.507812 485.910156 1097.578125 484.867188 1099.667969 483.878906 C 1101.761719 482.886719 1103.878906 481.949219 1106.015625 481.066406 C 1108.15625 480.179688 1110.3125 479.347656 1112.492188 478.566406 C 1114.671875 477.785156 1116.871094 477.058594 1119.085938 476.386719 C 1121.300781 475.714844 1123.53125 475.097656 1125.777344 474.535156 C 1128.019531 473.972656 1130.277344 473.46875 1132.550781 473.015625 C 1134.820312 472.5625 1137.097656 472.167969 1139.390625 471.828125 C 1141.679688 471.488281 1143.976562 471.207031 1146.28125 470.980469 C 1148.582031 470.753906 1150.890625 470.582031 1153.203125 470.46875 C 1155.515625 470.355469 1157.828125 470.296875 1160.144531 470.296875 C 1162.457031 470.296875 1164.769531 470.355469 1167.082031 470.46875 C 1169.394531 470.582031 1171.703125 470.753906 1174.007812 470.980469 C 1176.308594 471.207031 1178.605469 471.488281 1180.898438 471.828125 C 1183.1875 472.167969 1185.464844 472.5625 1187.738281 473.015625 C 1190.007812 473.46875 1192.265625 473.972656 1194.511719 474.535156 C 1196.757812 475.097656 1198.984375 475.714844 1201.203125 476.386719 C 1203.417969 477.058594 1205.613281 477.785156 1207.792969 478.566406 C 1209.972656 479.347656 1212.132812 480.179688 1214.269531 481.066406 C 1216.410156 481.949219 1218.523438 482.886719 1220.617188 483.878906 C 1222.710938 484.867188 1224.777344 485.910156 1226.816406 487 C 1228.859375 488.089844 1230.871094 489.230469 1232.859375 490.421875 C 1234.84375 491.609375 1236.800781 492.847656 1238.722656 494.136719 C 1240.648438 495.421875 1242.539062 496.753906 1244.398438 498.132812 C 1246.257812 499.511719 1248.082031 500.933594 1249.871094 502.402344 C 1251.660156 503.871094 1253.414062 505.382812 1255.128906 506.9375 C 1256.84375 508.492188 1258.519531 510.089844 1260.15625 511.726562 C 1261.792969 513.363281 1263.390625 515.039062 1264.945312 516.753906 C 1266.5 518.46875 1268.011719 520.222656 1269.480469 522.011719 C 1270.945312 523.800781 1272.371094 525.625 1273.75 527.484375 C 1275.128906 529.34375 1276.460938 531.234375 1277.746094 533.160156 C 1279.035156 535.082031 1280.269531 537.039062 1281.460938 539.023438 C 1282.652344 541.007812 1283.792969 543.023438 1284.882812 545.066406 C 1285.972656 547.105469 1287.015625 549.171875 1288.003906 551.265625 C 1288.996094 553.359375 1289.933594 555.472656 1290.816406 557.613281 C 1291.703125 559.75 1292.535156 561.910156 1293.316406 564.089844 C 1294.097656 566.269531 1294.820312 568.464844 1295.492188 570.679688 C 1296.164062 572.894531 1296.78125 575.125 1297.34375 577.371094 C 1297.90625 579.617188 1298.414062 581.875 1298.867188 584.144531 C 1299.316406 586.417969 1299.714844 588.695312 1300.054688 590.984375 C 1300.394531 593.277344 1300.675781 595.570312 1300.902344 597.875 C 1301.128906 600.179688 1301.300781 602.488281 1301.414062 604.800781 C 1301.527344 607.113281 1301.585938 609.425781 1301.585938 611.738281 Z M 1301.585938 611.738281 " fill-opacity="1" fill-rule="nonzero"/><path fill="#ffffff" d="M 1105.820312 639.851562 L 1159.816406 713.898438 L 1213.808594 639.851562 C 1238.546875 605.90625 1243.492188 561.546875 1213.808594 531.863281 C 1184.09375 502.144531 1135.503906 502.144531 1105.820312 531.863281 C 1092.191406 545.457031 1086.261719 561.871094 1086.03125 579.042969 C 1085.769531 597.125 1091.832031 616.0625 1101.890625 633.460938 C 1103.132812 635.625 1104.445312 637.753906 1105.820312 639.851562 Z M 1159.816406 613.707031 C 1142.679688 613.707031 1128.789062 599.8125 1128.789062 582.710938 C 1128.789062 565.574219 1142.679688 551.683594 1159.816406 551.683594 C 1176.917969 551.683594 1190.808594 565.574219 1190.808594 582.710938 C 1190.808594 599.8125 1176.917969 613.707031 1159.816406 613.707031 Z M 1159.816406 613.707031 " fill-opacity="1" fill-rule="evenodd"/><g transform="matrix(1, 0, 0, 1, 150, 507)"><g clip-path="url(#7f4decfe77)"><g fill="#80a300" fill-opacity="1"><g transform="translate(0.00002043, 229.964831)"><g><path d="M 7.671875 0 L 7.671875 -173.296875 L 42.375 -173.296875 L 42.375 -29.453125 L 78.078125 -29.453125 L 78.078125 0 Z M 7.671875 0 "/></g></g></g><g fill="#80a300" fill-opacity="1"><g transform="translate(92.802361, 229.964831)"><g><path d="M 6.046875 0 L 6.046875 -173.296875 L 39.546875 -173.296875 L 39.546875 0 Z M 6.046875 0 "/></g></g></g><g fill="#80a300" fill-opacity="1"><g transform="translate(151.308249, 229.964831)"><g><path d="M 23.609375 0 L 2.21875 -173.5 L 35.3125 -173.5 L 48.015625 -55.484375 L 59.3125 -173.5 L 92.40625 -173.5 L 71.015625 0 Z M 23.609375 0 "/></g></g></g><g fill="#80a300" fill-opacity="1"><g transform="translate(258.636122, 229.964831)"><g/></g></g><g fill="#05445e" fill-opacity="1"><g transform="translate(318.564285, 229.964831)"><g><path d="M 22.59375 0 L 22.59375 -140.015625 L 2.015625 -140.015625 L 2.015625 -173.296875 L 77.875 -173.296875 L 77.875 -140.015625 L 57.296875 -140.015625 L 57.296875 0 Z M 22.59375 0 "/></g></g></g><g fill="#05445e" fill-opacity="1"><g transform="translate(411.164896, 229.964831)"><g><path d="M 49.03125 1.609375 C 35.039062 1.609375 24.410156 -2.660156 17.140625 -11.203125 C 9.878906 -19.742188 6.25 -31.742188 6.25 -47.203125 L 6.25 -129.71875 C 6.25 -144.65625 9.878906 -155.921875 17.140625 -163.515625 C 24.410156 -171.117188 35.039062 -174.921875 49.03125 -174.921875 C 63.007812 -174.921875 73.628906 -171.117188 80.890625 -163.515625 C 88.160156 -155.921875 91.796875 -144.65625 91.796875 -129.71875 L 91.796875 -47.203125 C 91.796875 -31.609375 88.160156 -19.570312 80.890625 -11.09375 C 73.628906 -2.625 63.007812 1.609375 49.03125 1.609375 Z M 49.03125 -30.265625 C 52.125 -30.265625 54.207031 -31.609375 55.28125 -34.296875 C 56.351562 -36.984375 56.890625 -40.75 56.890625 -45.59375 L 56.890625 -130.328125 C 56.890625 -134.097656 56.382812 -137.160156 55.375 -139.515625 C 54.375 -141.867188 52.328125 -143.046875 49.234375 -143.046875 C 43.441406 -143.046875 40.546875 -138.671875 40.546875 -129.921875 L 40.546875 -45.390625 C 40.546875 -40.410156 41.148438 -36.644531 42.359375 -34.09375 C 43.578125 -31.539062 45.800781 -30.265625 49.03125 -30.265625 Z M 49.03125 -30.265625 "/></g></g></g><g fill="#05445e" fill-opacity="1"><g transform="translate(521.922423, 229.964831)"><g><path d="M 47.8125 1.609375 C 33.550781 1.609375 22.957031 -2.421875 16.03125 -10.484375 C 9.113281 -18.554688 5.65625 -30.53125 5.65625 -46.40625 L 5.65625 -173.296875 L 39.34375 -173.296875 L 39.34375 -47.8125 C 39.34375 -42.300781 39.878906 -38 40.953125 -34.90625 C 42.023438 -31.8125 44.3125 -30.265625 47.8125 -30.265625 C 51.3125 -30.265625 53.597656 -31.773438 54.671875 -34.796875 C 55.742188 -37.828125 56.28125 -42.164062 56.28125 -47.8125 L 56.28125 -173.296875 L 89.984375 -173.296875 L 89.984375 -46.40625 C 89.984375 -30.53125 86.519531 -18.554688 79.59375 -10.484375 C 72.664062 -2.421875 62.070312 1.609375 47.8125 1.609375 Z M 47.8125 1.609375 "/></g></g></g><g fill="#05445e" fill-opacity="1"><g transform="translate(630.259028, 229.964831)"><g><path d="M 7.671875 -173.296875 L 60.921875 -173.296875 C 69.398438 -173.296875 75.957031 -171.378906 80.59375 -167.546875 C 85.238281 -163.710938 88.367188 -158.332031 89.984375 -151.40625 C 91.597656 -144.476562 92.40625 -135.640625 92.40625 -124.890625 C 92.40625 -115.066406 91.125 -107.394531 88.5625 -101.875 C 86.007812 -96.363281 81.570312 -92.535156 75.25 -90.390625 C 80.5 -89.304688 84.300781 -86.679688 86.65625 -82.515625 C 89.007812 -78.347656 90.1875 -72.695312 90.1875 -65.5625 L 89.78125 0 L 55.890625 0 L 55.890625 -67.78125 C 55.890625 -72.625 54.945312 -75.71875 53.0625 -77.0625 C 51.175781 -78.414062 47.742188 -79.09375 42.765625 -79.09375 L 42.765625 0 L 7.671875 0 Z M 51.25 -109.140625 C 56.082031 -109.140625 58.5 -114.390625 58.5 -124.890625 C 58.5 -129.460938 58.296875 -132.890625 57.890625 -135.171875 C 57.492188 -137.460938 56.753906 -139.039062 55.671875 -139.90625 C 54.597656 -140.78125 53.054688 -141.21875 51.046875 -141.21875 L 42.96875 -141.21875 L 42.96875 -109.140625 Z M 51.25 -109.140625 "/></g></g></g><g fill="#05445e" fill-opacity="1"><g transform="translate(739.200886, 229.964831)"><g><path d="M 48.828125 1.609375 C 33.085938 1.609375 21.71875 -2.285156 14.71875 -10.078125 C 7.726562 -17.878906 4.234375 -30.457031 4.234375 -47.8125 L 4.234375 -64.765625 L 38.328125 -64.765625 L 38.328125 -43.171875 C 38.328125 -34.566406 41.085938 -30.265625 46.609375 -30.265625 C 49.703125 -30.265625 51.851562 -31.171875 53.0625 -32.984375 C 54.269531 -34.796875 54.875 -37.859375 54.875 -42.171875 C 54.875 -47.816406 54.203125 -52.488281 52.859375 -56.1875 C 51.515625 -59.882812 49.800781 -62.976562 47.71875 -65.46875 C 45.632812 -67.957031 41.898438 -71.820312 36.515625 -77.0625 L 21.59375 -92 C 10.019531 -103.289062 4.234375 -115.800781 4.234375 -129.53125 C 4.234375 -144.320312 7.628906 -155.582031 14.421875 -163.3125 C 21.210938 -171.050781 31.132812 -174.921875 44.1875 -174.921875 C 59.789062 -174.921875 71.019531 -170.785156 77.875 -162.515625 C 84.738281 -154.242188 88.171875 -141.296875 88.171875 -123.671875 L 52.859375 -123.671875 L 52.65625 -135.578125 C 52.65625 -137.859375 52.015625 -139.671875 50.734375 -141.015625 C 49.460938 -142.367188 47.679688 -143.046875 45.390625 -143.046875 C 42.703125 -143.046875 40.6875 -142.304688 39.34375 -140.828125 C 38 -139.347656 37.328125 -137.328125 37.328125 -134.765625 C 37.328125 -129.117188 40.550781 -123.269531 47 -117.21875 L 67.1875 -97.84375 C 71.894531 -93.269531 75.796875 -88.929688 78.890625 -84.828125 C 81.984375 -80.734375 84.46875 -75.894531 86.34375 -70.3125 C 88.226562 -64.726562 89.171875 -58.101562 89.171875 -50.4375 C 89.171875 -33.351562 86.039062 -20.40625 79.78125 -11.59375 C 73.53125 -2.789062 63.210938 1.609375 48.828125 1.609375 Z M 48.828125 1.609375 "/></g></g></g><g fill="#05445e" fill-opacity="1"><g transform="translate(0.00002043, 405.959227)"><g><path d="M 120.84375 0 L 107.734375 -12.703125 C 94.691406 -2.753906 79.085938 2.21875 60.921875 2.21875 C 50.035156 2.21875 40.554688 0.4375 32.484375 -3.125 C 24.410156 -6.6875 18.1875 -11.726562 13.8125 -18.25 C 9.445312 -24.78125 7.265625 -32.414062 7.265625 -41.15625 C 7.265625 -50.03125 9.648438 -58.066406 14.421875 -65.265625 C 19.203125 -72.460938 26.363281 -78.347656 35.90625 -82.921875 C 32.414062 -87.222656 29.929688 -91.359375 28.453125 -95.328125 C 26.972656 -99.296875 26.234375 -103.632812 26.234375 -108.34375 C 26.234375 -115.0625 27.976562 -121.175781 31.46875 -126.6875 C 34.96875 -132.207031 40.046875 -136.546875 46.703125 -139.703125 C 53.359375 -142.867188 61.257812 -144.453125 70.40625 -144.453125 C 79.6875 -144.453125 87.554688 -142.769531 94.015625 -139.40625 C 100.472656 -136.039062 105.316406 -131.535156 108.546875 -125.890625 C 111.773438 -120.242188 113.253906 -114.054688 112.984375 -107.328125 L 80.5 -107.328125 C 80.632812 -110.960938 79.722656 -113.753906 77.765625 -115.703125 C 75.816406 -117.648438 73.226562 -118.625 70 -118.625 C 66.78125 -118.625 64.09375 -117.679688 61.9375 -115.796875 C 59.78125 -113.921875 58.703125 -111.503906 58.703125 -108.546875 C 58.703125 -105.722656 59.609375 -102.765625 61.421875 -99.671875 C 63.242188 -96.578125 66.101562 -93.007812 70 -88.96875 L 104.5 -55.28125 C 104.769531 -55.945312 105.140625 -56.75 105.609375 -57.6875 C 106.085938 -58.632812 106.59375 -59.710938 107.125 -60.921875 L 114.59375 -73.640625 L 149.09375 -73.640625 L 139.40625 -56.09375 C 135.78125 -48.15625 131.613281 -40.617188 126.90625 -33.484375 L 161 0 Z M 62.546875 -25.625 C 71.554688 -25.625 79.554688 -28.175781 86.546875 -33.28125 L 55.078125 -63.75 C 45.390625 -58.769531 40.546875 -52.046875 40.546875 -43.578125 C 40.546875 -38.460938 42.53125 -34.191406 46.5 -30.765625 C 50.46875 -27.335938 55.816406 -25.625 62.546875 -25.625 Z M 62.546875 -25.625 "/></g></g></g><g fill="#05445e" fill-opacity="1"><g transform="translate(160.991502, 405.959227)"><g><path d="M 114.390625 -141.625 L 114.390625 -113.984375 L 76.859375 -113.984375 L 76.859375 0 L 42.375 0 L 42.375 -113.984375 L 4.84375 -113.984375 L 4.84375 -141.625 Z M 114.390625 -141.625 "/></g></g></g><g fill="#05445e" fill-opacity="1"><g transform="translate(280.222013, 405.959227)"><g><path d="M 47 -93.8125 C 51.039062 -100 56.085938 -104.875 62.140625 -108.4375 C 68.191406 -112 74.914062 -113.78125 82.3125 -113.78125 L 82.3125 -77.265625 L 72.828125 -77.265625 C 64.222656 -77.265625 57.765625 -75.414062 53.453125 -71.71875 C 49.148438 -68.019531 47 -61.53125 47 -52.25 L 47 0 L 12.515625 0 L 12.515625 -112.578125 L 47 -112.578125 Z M 47 -93.8125 "/></g></g></g><g fill="#05445e" fill-opacity="1"><g transform="translate(366.568313, 405.959227)"><g><path d="M 5.65625 -56.484375 C 5.65625 -68.054688 7.835938 -78.210938 12.203125 -86.953125 C 16.578125 -95.691406 22.53125 -102.414062 30.0625 -107.125 C 37.59375 -111.832031 46 -114.1875 55.28125 -114.1875 C 63.21875 -114.1875 70.175781 -112.570312 76.15625 -109.34375 C 82.144531 -106.113281 86.753906 -101.878906 89.984375 -96.640625 L 89.984375 -112.578125 L 124.484375 -112.578125 L 124.484375 0 L 89.984375 0 L 89.984375 -15.9375 C 86.617188 -10.6875 81.941406 -6.445312 75.953125 -3.21875 C 69.972656 0 63.015625 1.609375 55.078125 1.609375 C 45.929688 1.609375 37.59375 -0.773438 30.0625 -5.546875 C 22.53125 -10.316406 16.578125 -17.109375 12.203125 -25.921875 C 7.835938 -34.734375 5.65625 -44.921875 5.65625 -56.484375 Z M 89.984375 -56.28125 C 89.984375 -64.894531 87.59375 -71.6875 82.8125 -76.65625 C 78.039062 -81.632812 72.222656 -84.125 65.359375 -84.125 C 58.503906 -84.125 52.6875 -81.671875 47.90625 -76.765625 C 43.132812 -71.859375 40.75 -65.097656 40.75 -56.484375 C 40.75 -47.878906 43.132812 -41.054688 47.90625 -36.015625 C 52.6875 -30.972656 58.503906 -28.453125 65.359375 -28.453125 C 72.222656 -28.453125 78.039062 -30.9375 82.8125 -35.90625 C 87.59375 -40.882812 89.984375 -47.675781 89.984375 -56.28125 Z M 89.984375 -56.28125 "/></g></g></g><g fill="#05445e" fill-opacity="1"><g transform="translate(503.552336, 405.959227)"><g><path d="M 81.109375 -113.78125 C 94.285156 -113.78125 104.804688 -109.507812 112.671875 -100.96875 C 120.546875 -92.4375 124.484375 -80.703125 124.484375 -65.765625 L 124.484375 0 L 90.1875 0 L 90.1875 -61.125 C 90.1875 -68.65625 88.234375 -74.503906 84.328125 -78.671875 C 80.429688 -82.847656 75.1875 -84.9375 68.59375 -84.9375 C 62 -84.9375 56.75 -82.847656 52.84375 -78.671875 C 48.945312 -74.503906 47 -68.65625 47 -61.125 L 47 0 L 12.515625 0 L 12.515625 -112.578125 L 47 -112.578125 L 47 -97.640625 C 50.5 -102.617188 55.207031 -106.550781 61.125 -109.4375 C 67.039062 -112.332031 73.703125 -113.78125 81.109375 -113.78125 Z M 81.109375 -113.78125 "/></g></g></g><g fill="#05445e" fill-opacity="1"><g transform="translate(639.527562, 405.959227)"><g><path d="M 58.3125 1.609375 C 48.488281 1.609375 39.742188 -0.0664062 32.078125 -3.421875 C 24.410156 -6.785156 18.359375 -11.394531 13.921875 -17.25 C 9.484375 -23.101562 6.992188 -29.660156 6.453125 -36.921875 L 40.546875 -36.921875 C 40.953125 -33.015625 42.769531 -29.851562 46 -27.4375 C 49.226562 -25.019531 53.195312 -23.8125 57.90625 -23.8125 C 62.207031 -23.8125 65.535156 -24.648438 67.890625 -26.328125 C 70.242188 -28.003906 71.421875 -30.191406 71.421875 -32.890625 C 71.421875 -36.117188 69.738281 -38.503906 66.375 -40.046875 C 63.007812 -41.597656 57.5625 -43.3125 50.03125 -45.1875 C 41.957031 -47.070312 35.226562 -49.054688 29.84375 -51.140625 C 24.46875 -53.222656 19.832031 -56.515625 15.9375 -61.015625 C 12.039062 -65.523438 10.09375 -71.613281 10.09375 -79.28125 C 10.09375 -85.738281 11.875 -91.625 15.4375 -96.9375 C 19 -102.25 24.242188 -106.453125 31.171875 -109.546875 C 38.097656 -112.640625 46.335938 -114.1875 55.890625 -114.1875 C 70.003906 -114.1875 81.128906 -110.6875 89.265625 -103.6875 C 97.410156 -96.695312 102.085938 -87.421875 103.296875 -75.859375 L 71.421875 -75.859375 C 70.878906 -79.753906 69.160156 -82.84375 66.265625 -85.125 C 63.378906 -87.414062 59.582031 -88.5625 54.875 -88.5625 C 50.84375 -88.5625 47.75 -87.785156 45.59375 -86.234375 C 43.445312 -84.691406 42.375 -82.578125 42.375 -79.890625 C 42.375 -76.660156 44.085938 -74.238281 47.515625 -72.625 C 50.941406 -71.007812 56.285156 -69.394531 63.546875 -67.78125 C 71.890625 -65.632812 78.679688 -63.519531 83.921875 -61.4375 C 89.171875 -59.351562 93.78125 -55.988281 97.75 -51.34375 C 101.71875 -46.707031 103.769531 -40.488281 103.90625 -32.6875 C 103.90625 -26.09375 102.054688 -20.207031 98.359375 -15.03125 C 94.660156 -9.851562 89.347656 -5.785156 82.421875 -2.828125 C 75.492188 0.128906 67.457031 1.609375 58.3125 1.609375 Z M 58.3125 1.609375 "/></g></g></g><g fill="#05445e" fill-opacity="1"><g transform="translate(752.100567, 405.959227)"><g><path d="M 69 -83.921875 L 50.4375 -83.921875 L 50.4375 0 L 15.9375 0 L 15.9375 -83.921875 L 3.4375 -83.921875 L 3.4375 -112.578125 L 15.9375 -112.578125 L 15.9375 -115.796875 C 15.9375 -129.648438 19.90625 -140.175781 27.84375 -147.375 C 35.78125 -154.570312 47.414062 -158.171875 62.75 -158.171875 C 65.300781 -158.171875 67.179688 -158.101562 68.390625 -157.96875 L 68.390625 -128.71875 C 61.796875 -129.125 57.15625 -128.179688 54.46875 -125.890625 C 51.78125 -123.609375 50.4375 -119.503906 50.4375 -113.578125 L 50.4375 -112.578125 L 69 -112.578125 Z M 69 -83.921875 "/></g></g></g><g fill="#05445e" fill-opacity="1"><g transform="translate(824.728316, 405.959227)"><g><path d="M 118.625 -58.109375 C 118.625 -54.878906 118.425781 -51.515625 118.03125 -48.015625 L 39.953125 -48.015625 C 40.484375 -41.023438 42.734375 -35.675781 46.703125 -31.96875 C 50.671875 -28.269531 55.546875 -26.421875 61.328125 -26.421875 C 69.941406 -26.421875 75.925781 -30.054688 79.28125 -37.328125 L 116 -37.328125 C 114.125 -29.929688 110.726562 -23.269531 105.8125 -17.34375 C 100.90625 -11.425781 94.753906 -6.785156 87.359375 -3.421875 C 79.960938 -0.0664062 71.691406 1.609375 62.546875 1.609375 C 51.515625 1.609375 41.691406 -0.742188 33.078125 -5.453125 C 24.472656 -10.160156 17.75 -16.882812 12.90625 -25.625 C 8.070312 -34.363281 5.65625 -44.582031 5.65625 -56.28125 C 5.65625 -67.988281 8.039062 -78.210938 12.8125 -86.953125 C 17.582031 -95.691406 24.269531 -102.414062 32.875 -107.125 C 41.488281 -111.832031 51.378906 -114.1875 62.546875 -114.1875 C 73.441406 -114.1875 83.125 -111.898438 91.59375 -107.328125 C 100.070312 -102.753906 106.695312 -96.226562 111.46875 -87.75 C 116.238281 -79.28125 118.625 -69.398438 118.625 -58.109375 Z M 83.328125 -67.1875 C 83.328125 -73.101562 81.304688 -77.804688 77.265625 -81.296875 C 73.234375 -84.796875 68.191406 -86.546875 62.140625 -86.546875 C 56.359375 -86.546875 51.484375 -84.863281 47.515625 -81.5 C 43.546875 -78.144531 41.085938 -73.375 40.140625 -67.1875 Z M 83.328125 -67.1875 "/></g></g></g><g fill="#05445e" fill-opacity="1"><g transform="translate(949.002428, 405.959227)"><g><path d="M 47 -93.8125 C 51.039062 -100 56.085938 -104.875 62.140625 -108.4375 C 68.191406 -112 74.914062 -113.78125 82.3125 -113.78125 L 82.3125 -77.265625 L 72.828125 -77.265625 C 64.222656 -77.265625 57.765625 -75.414062 53.453125 -71.71875 C 49.148438 -68.019531 47 -61.53125 47 -52.25 L 47 0 L 12.515625 0 L 12.515625 -112.578125 L 47 -112.578125 Z M 47 -93.8125 "/></g></g></g><g fill="#05445e" fill-opacity="1"><g transform="translate(1035.348707, 405.959227)"><g><path d="M 58.3125 1.609375 C 48.488281 1.609375 39.742188 -0.0664062 32.078125 -3.421875 C 24.410156 -6.785156 18.359375 -11.394531 13.921875 -17.25 C 9.484375 -23.101562 6.992188 -29.660156 6.453125 -36.921875 L 40.546875 -36.921875 C 40.953125 -33.015625 42.769531 -29.851562 46 -27.4375 C 49.226562 -25.019531 53.195312 -23.8125 57.90625 -23.8125 C 62.207031 -23.8125 65.535156 -24.648438 67.890625 -26.328125 C 70.242188 -28.003906 71.421875 -30.191406 71.421875 -32.890625 C 71.421875 -36.117188 69.738281 -38.503906 66.375 -40.046875 C 63.007812 -41.597656 57.5625 -43.3125 50.03125 -45.1875 C 41.957031 -47.070312 35.226562 -49.054688 29.84375 -51.140625 C 24.46875 -53.222656 19.832031 -56.515625 15.9375 -61.015625 C 12.039062 -65.523438 10.09375 -71.613281 10.09375 -79.28125 C 10.09375 -85.738281 11.875 -91.625 15.4375 -96.9375 C 19 -102.25 24.242188 -106.453125 31.171875 -109.546875 C 38.097656 -112.640625 46.335938 -114.1875 55.890625 -114.1875 C 70.003906 -114.1875 81.128906 -110.6875 89.265625 -103.6875 C 97.410156 -96.695312 102.085938 -87.421875 103.296875 -75.859375 L 71.421875 -75.859375 C 70.878906 -79.753906 69.160156 -82.84375 66.265625 -85.125 C 63.378906 -87.414062 59.582031 -88.5625 54.875 -88.5625 C 50.84375 -88.5625 47.75 -87.785156 45.59375 -86.234375 C 43.445312 -84.691406 42.375 -82.578125 42.375 -79.890625 C 42.375 -76.660156 44.085938 -74.238281 47.515625 -72.625 C 50.941406 -71.007812 56.285156 -69.394531 63.546875 -67.78125 C 71.890625 -65.632812 78.679688 -63.519531 83.921875 -61.4375 C 89.171875 -59.351562 93.78125 -55.988281 97.75 -51.34375 C 101.71875 -46.707031 103.769531 -40.488281 103.90625 -32.6875 C 103.90625 -26.09375 102.054688 -20.207031 98.359375 -15.03125 C 94.660156 -9.851562 89.347656 -5.785156 82.421875 -2.828125 C 75.492188 0.128906 67.457031 1.609375 58.3125 1.609375 Z M 58.3125 1.609375 "/></g></g></g></g></g></svg>